<?xml version="1.0" encoding="UTF-8"?><!DOCTYPE score-partwise PUBLIC "-//Recordare//DTD MusicXML 3.0 Partwise//EN" "http://www.musicxml.org/dtds/partwise.dtd"><score-partwise version="3.0"><movement-title>Jeopardy! Theme Song (remix)</movement-title><identification><creator type="composer">Joshua Argyle</creator><rights>@</rights><encoding><software>Ensemble Composer Pro</software></encoding></identification><part-list><score-part id="P1"><part-name>Acoustic Grand Piano</part-name><score-instrument id="P1-I3"><instrument-name>Acoustic Grand Piano</instrument-name></score-instrument><midi-instrument id="P1-I3"><midi-channel>1</midi-channel><midi-program>1</midi-program><volume>80</volume><pan>0</pan></midi-instrument></score-part><score-part id="P2"><part-name>Trumpet</part-name><score-instrument id="P2-I3"><instrument-name>Trumpet</instrument-name></score-instrument><midi-instrument id="P2-I3"><midi-channel>2</midi-channel><midi-program>57</midi-program><volume>80</volume><pan>0</pan></midi-instrument></score-part></part-list><!--=========================================================--><part id="P1"><measure number="1" width="314.0"><print page-number="1"><system-layout><system-margins><left-margin>120</left-margin><right-margin>0</right-margin></system-margins><top-system-distance>230</top-system-distance></system-layout><measure-numbering>system</measure-numbering></print><attributes><divisions>8</divisions><key number="1"><fifths>0</fifths><mode>major</mode></key><key number="2"><fifths>0</fifths><mode>major</mode></key><time><beats>4</beats><beat-type>4</beat-type></time><staves>2</staves><clef number="1"><sign>G</sign><line>2</line></clef><clef number="2"><sign>F</sign><line>4</line></clef></attributes><sound tempo="121"/><note default-x="63.5"><rest /><duration>8</duration><voice>1</voice><type>quarter</type><staff>1</staff></note><note default-x="117.5"><pitch><step>G</step><octave>6</octave></pitch><duration>16</duration><voice>1</voice><type>half</type><stem default-y="17.11628">down</stem><staff>1</staff></note><note default-x="224.0"><pitch><step>F</step><octave>6</octave></pitch><duration>2</duration><voice>1</voice><type>16th</type><stem default-y="8.55814">down</stem><staff>1</staff><beam number="1">begin</beam><beam number="2">begin</beam></note><note default-x="246.5"><pitch><step>E</step><octave>6</octave></pitch><duration>2</duration><voice>1</voice><type>16th</type><stem default-y="9.984496">down</stem><staff>1</staff><beam number="1">continue</beam><beam number="2">continue</beam></note><note default-x="269.0"><pitch><step>D</step><octave>6</octave></pitch><duration>2</duration><voice>1</voice><type>16th</type><stem default-y="11.410853">down</stem><staff>1</staff><beam number="1">continue</beam><beam number="2">continue</beam></note><note default-x="291.5"><pitch><step>C</step><octave>6</octave></pitch><duration>2</duration><voice>1</voice><type>16th</type><stem default-y="12.83721">down</stem><staff>1</staff><beam number="1">end</beam><beam number="2">end</beam></note><backup><duration>32</duration></backup><note default-x="63.5"><pitch><step>G</step><octave>1</octave></pitch><duration>32</duration><voice>2</voice><type>whole</type><stem default-y="17.11628">up</stem><staff>2</staff></note><note default-x="63.5"><chord /><pitch><step>G</step><octave>2</octave></pitch><duration>32</duration><voice>2</voice><type>whole</type><stem default-y="4.27907">up</stem><staff>2</staff></note></measure><!--=========================================================--><measure number="2" width="238.5"><note default-x="13.5"><pitch><step>B</step><octave>5</octave></pitch><duration>4</duration><voice>1</voice><type>eighth</type><stem default-y="17.11628">down</stem><staff>1</staff><beam number="1">begin</beam></note><note default-x="40.5"><pitch><step>A</step><octave>5</octave></pitch><duration>4</duration><voice>1</voice><type>eighth</type><stem default-y="21.39535">down</stem><staff>1</staff><beam number="1">end</beam></note><note default-x="67.5"><pitch><step>G</step><octave>5</octave></pitch><duration>4</duration><voice>1</voice><type>eighth</type><stem default-y="25.67442">down</stem><staff>1</staff><beam number="1">begin</beam></note><note default-x="94.5"><pitch><step>F</step><octave>5</octave></pitch><duration>4</duration><voice>1</voice><type>eighth</type><stem default-y="29.95349">down</stem><staff>1</staff><beam number="1">end</beam></note><note default-x="121.5"><pitch><step>C</step><octave>5</octave></pitch><duration>8</duration><voice>1</voice><type>quarter</type><stem default-y="42.7907">down</stem><staff>1</staff></note><note default-x="121.5"><chord /><pitch><step>E</step><octave>5</octave></pitch><duration>8</duration><voice>1</voice><type>quarter</type><stem default-y="34.23256">down</stem><staff>1</staff></note><note default-x="184.5"><pitch><step>B</step><octave>4</octave></pitch><duration>8</duration><voice>1</voice><type>quarter</type><stem default-y="47.06977">down</stem><staff>1</staff></note><note default-x="184.5"><chord /><pitch><step>D</step><octave>5</octave></pitch><duration>8</duration><voice>1</voice><type>quarter</type><stem default-y="38.511627">down</stem><staff>1</staff></note><backup><duration>32</duration></backup><note default-x="13.5"><pitch><step>G</step><octave>2</octave></pitch><duration>4</duration><voice>2</voice><type>eighth</type><stem default-y="4.27907">up</stem><staff>2</staff><beam number="1">begin</beam></note><note default-x="13.5"><chord /><pitch><step>G</step><octave>3</octave></pitch><duration>4</duration><voice>2</voice><type>eighth</type><stem default-y="-25.67442">up</stem><staff>2</staff><beam number="1" /></note><note default-x="40.5"><pitch><step>G</step><octave>2</octave></pitch><duration>4</duration><voice>2</voice><type>eighth</type><stem default-y="-25.67442">up</stem><staff>2</staff><beam number="1">end</beam></note><note default-x="40.5"><chord /><pitch><step>G</step><octave>3</octave></pitch><duration>4</duration><voice>2</voice><type>eighth</type><stem default-y="-25.67442">up</stem><staff>2</staff><beam number="1" /></note><note default-x="67.5"><pitch><step>G</step><octave>2</octave></pitch><duration>4</duration><voice>2</voice><type>eighth</type><stem default-y="4.27907">up</stem><staff>2</staff><beam number="1">begin</beam></note><note default-x="67.5"><chord /><pitch><step>G</step><octave>3</octave></pitch><duration>4</duration><voice>2</voice><type>eighth</type><stem default-y="-25.67442">up</stem><staff>2</staff><beam number="1" /></note><note default-x="94.5"><pitch><step>G</step><octave>2</octave></pitch><duration>4</duration><voice>2</voice><type>eighth</type><stem default-y="-25.67442">up</stem><staff>2</staff><beam number="1">end</beam></note><note default-x="94.5"><chord /><pitch><step>G</step><octave>3</octave></pitch><duration>4</duration><voice>2</voice><type>eighth</type><stem default-y="-25.67442">up</stem><staff>2</staff><beam number="1" /></note><note default-x="121.5"><pitch><step>G</step><octave>2</octave></pitch><duration>8</duration><voice>2</voice><type>quarter</type><stem default-y="4.27907">up</stem><staff>2</staff></note><note default-x="121.5"><chord /><pitch><step>D</step><octave>3</octave></pitch><duration>8</duration><voice>2</voice><type>quarter</type><stem default-y="-12.83721">up</stem><staff>2</staff></note><note default-x="121.5"><chord /><pitch><step>G</step><octave>3</octave></pitch><duration>8</duration><voice>2</voice><type>quarter</type><stem default-y="-25.67442">up</stem><staff>2</staff></note><note default-x="184.5"><pitch><step>G</step><octave>2</octave></pitch><duration>8</duration><voice>2</voice><type>quarter</type><stem default-y="4.27907">up</stem><staff>2</staff></note><note default-x="184.5"><chord /><pitch><step>D</step><octave>3</octave></pitch><duration>8</duration><voice>2</voice><type>quarter</type><stem default-y="-12.83721">up</stem><staff>2</staff></note><note default-x="184.5"><chord /><pitch><step>G</step><octave>3</octave></pitch><duration>8</duration><voice>2</voice><type>quarter</type><stem default-y="-25.67442">up</stem><staff>2</staff></note></measure><!--=========================================================--><measure number="3" width="228.0"><note default-x="13.5"><pitch><step>G</step><octave>4</octave></pitch><duration>12</duration><voice>1</voice><type>quarter</type><dot /><stem default-y="55.627907">down</stem><staff>1</staff></note><note default-x="13.5"><chord /><pitch><step>B</step><octave>4</octave></pitch><duration>12</duration><voice>1</voice><type>quarter</type><dot /><stem default-y="47.06977">down</stem><staff>1</staff></note><note default-x="13.5"><chord /><pitch><step>D</step><octave>5</octave></pitch><duration>12</duration><voice>1</voice><type>quarter</type><dot /><stem default-y="38.511627">down</stem><staff>1</staff></note><note default-x="13.5"><chord /><pitch><step>G</step><octave>5</octave></pitch><duration>12</duration><voice>1</voice><type>quarter</type><dot /><stem default-y="25.67442">down</stem><staff>1</staff></note><note default-x="87.5"><pitch><step>G</step><octave>4</octave></pitch><duration>4</duration><voice>1</voice><type>eighth</type><stem default-y="55.627907">down</stem><staff>1</staff><beam number="1" /></note><note default-x="87.5"><chord /><pitch><step>B</step><octave>4</octave></pitch><duration>4</duration><voice>1</voice><type>eighth</type><stem default-y="47.06977">down</stem><staff>1</staff><beam number="1" /></note><note default-x="87.5"><chord /><pitch><step>D</step><octave>5</octave></pitch><duration>4</duration><voice>1</voice><type>eighth</type><stem default-y="38.511627">down</stem><staff>1</staff><beam number="1" /></note><note default-x="87.5"><chord /><pitch><step>G</step><octave>5</octave></pitch><duration>4</duration><voice>1</voice><type>eighth</type><stem default-y="25.67442">down</stem><staff>1</staff><beam number="1" /></note><note default-x="114.5"><pitch><step>G</step><octave>4</octave></pitch><duration>8</duration><voice>1</voice><type>quarter</type><stem default-y="55.627907">down</stem><staff>1</staff></note><note default-x="114.5"><chord /><pitch><step>G</step><octave>5</octave></pitch><duration>8</duration><voice>1</voice><type>quarter</type><stem default-y="25.67442">down</stem><staff>1</staff></note><note default-x="174.0"><pitch><step>G</step><octave>4</octave></pitch><duration>8</duration><voice>1</voice><type>quarter</type><stem default-y="55.627907">down</stem><staff>1</staff></note><note default-x="174.0"><chord /><pitch><step>G</step><octave>5</octave></pitch><duration>8</duration><voice>1</voice><type>quarter</type><stem default-y="25.67442">down</stem><staff>1</staff></note><backup><duration>32</duration></backup><note default-x="13.5"><rest /><duration>16</duration><voice>2</voice><type>half</type><staff>2</staff></note><note default-x="114.5"><pitch><step>G</step><octave>2</octave></pitch><duration>8</duration><voice>2</voice><type>quarter</type><stem default-y="4.27907">up</stem><staff>2</staff></note><note default-x="114.5"><chord /><pitch><step>G</step><octave>3</octave></pitch><duration>8</duration><voice>2</voice><type>quarter</type><stem default-y="-25.67442">up</stem><staff>2</staff></note><note default-x="174.0"><pitch><step>F</step><octave>2</octave></pitch><duration>8</duration><voice>2</voice><type>quarter</type><stem default-y="8.55814">up</stem><staff>2</staff></note><note default-x="174.0"><chord /><pitch><step>F</step><octave>3</octave></pitch><duration>8</duration><voice>2</voice><type>quarter</type><stem default-y="-21.39535">up</stem><staff>2</staff></note></measure><!--=========================================================--><measure number="4" width="207.33722"><barline location="left"><bar-style>heavy-light</bar-style><repeat direction="forward" /></barline><note default-x="27.33721"><pitch><step>G</step><octave>4</octave></pitch><duration>8</duration><voice>1</voice><type>quarter</type><stem default-y="55.627907">down</stem><staff>1</staff></note><note default-x="27.33721"><chord /><pitch><step>G</step><octave>5</octave></pitch><duration>8</duration><voice>1</voice><type>quarter</type><stem default-y="25.67442">down</stem><staff>1</staff></note><note default-x="81.33721"><pitch><step>G</step><octave>4</octave></pitch><duration>8</duration><voice>1</voice><type>quarter</type><stem default-y="55.627907">down</stem><staff>1</staff></note><note default-x="81.33721"><chord /><pitch><step>G</step><octave>5</octave></pitch><duration>8</duration><voice>1</voice><type>quarter</type><stem default-y="25.67442">down</stem><staff>1</staff></note><note default-x="135.33722"><pitch><step>C</step><octave>4</octave></pitch><duration>8</duration><voice>1</voice><type>quarter</type><stem default-y="12.837208">up</stem><staff>1</staff></note><note default-x="135.33722"><chord /><pitch><step>E</step><octave>4</octave></pitch><duration>8</duration><voice>1</voice><type>quarter</type><stem default-y="4.27907">up</stem><staff>1</staff></note><note default-x="135.33722"><chord /><pitch><step>G</step><octave>4</octave></pitch><duration>8</duration><voice>1</voice><type>quarter</type><stem default-y="-4.27907">up</stem><staff>1</staff></note><note default-x="171.33722"><pitch><step>C</step><octave>5</octave></pitch><duration>8</duration><voice>1</voice><type>quarter</type><stem default-y="42.7907">down</stem><staff>1</staff></note><backup><duration>32</duration></backup><note default-x="27.33721"><pitch><step>E</step><octave>2</octave></pitch><duration>8</duration><voice>2</voice><type>quarter</type><stem default-y="12.837208">up</stem><staff>2</staff></note><note default-x="27.33721"><chord /><pitch><step>E</step><octave>3</octave></pitch><duration>8</duration><voice>2</voice><type>quarter</type><stem default-y="-17.11628">up</stem><staff>2</staff></note><note default-x="81.33721"><pitch><step>D</step><octave>2</octave></pitch><duration>8</duration><voice>2</voice><type>quarter</type><stem default-y="17.11628">up</stem><staff>2</staff></note><note default-x="81.33721"><chord /><pitch><step>D</step><octave>3</octave></pitch><duration>8</duration><voice>2</voice><type>quarter</type><stem default-y="-12.83721">up</stem><staff>2</staff></note><note default-x="135.33722"><pitch><step>C</step><octave>2</octave></pitch><duration>8</duration><tie type="start" /><voice>2</voice><type>quarter</type><stem default-y="21.395351">up</stem><staff>2</staff><notations><tied type="start" /></notations></note><note default-x="135.33722"><chord /><pitch><step>G</step><octave>2</octave></pitch><duration>8</duration><voice>2</voice><type>quarter</type><stem default-y="4.27907">up</stem><staff>2</staff></note><note default-x="135.33722"><chord /><pitch><step>C</step><octave>3</octave></pitch><duration>8</duration><tie type="start" /><voice>2</voice><type>quarter</type><stem default-y="-8.55814">up</stem><staff>2</staff><notations><tied type="start" /></notations></note><note default-x="171.33722"><pitch><step>C</step><octave>2</octave></pitch><duration>8</duration><tie type="stop" /><voice>2</voice><type>quarter</type><stem default-y="21.395351">up</stem><staff>2</staff><notations><tied type="stop" /></notations></note><note default-x="171.33722"><chord /><pitch><step>C</step><octave>3</octave></pitch><duration>8</duration><tie type="stop" /><voice>2</voice><type>quarter</type><stem default-y="-8.55814">up</stem><staff>2</staff><notations><tied type="stop" /></notations></note></measure><!--=========================================================--><measure number="5" width="157.5"><note default-x="13.5"><pitch><step>C</step><octave>4</octave></pitch><duration>8</duration><voice>1</voice><type>quarter</type><stem default-y="12.837208">up</stem><staff>1</staff></note><note default-x="13.5"><chord /><pitch><step>G</step><octave>4</octave></pitch><duration>8</duration><voice>1</voice><type>quarter</type><stem default-y="-4.27907">up</stem><staff>1</staff></note><note default-x="49.5"><pitch><step>C</step><octave>4</octave></pitch><duration>8</duration><voice>1</voice><type>quarter</type><stem default-y="12.837208">up</stem><staff>1</staff></note><note default-x="85.5"><pitch><step>G</step><octave>4</octave></pitch><duration>8</duration><voice>1</voice><type>quarter</type><stem default-y="-4.27907">up</stem><staff>1</staff></note><note default-x="121.5"><pitch><step>C</step><octave>5</octave></pitch><duration>8</duration><voice>1</voice><type>quarter</type><stem default-y="42.7907">down</stem><staff>1</staff></note><backup><duration>32</duration></backup><note default-x="13.5"><pitch><step>C</step><octave>2</octave></pitch><duration>16</duration><voice>2</voice><type>half</type><stem default-y="21.395351">up</stem><staff>2</staff></note><note default-x="13.5"><chord /><pitch><step>E</step><octave>2</octave></pitch><duration>16</duration><voice>2</voice><type>half</type><stem default-y="12.837208">up</stem><staff>2</staff></note><note default-x="13.5"><chord /><pitch><step>C</step><octave>3</octave></pitch><duration>16</duration><voice>2</voice><type>half</type><stem default-y="-8.55814">up</stem><staff>2</staff></note><note default-x="85.5"><pitch><step>F</step><octave>2</octave></pitch><duration>8</duration><voice>2</voice><type>quarter</type><stem default-y="8.55814">up</stem><staff>2</staff></note><note default-x="85.5"><chord /><pitch><step>C</step><octave>3</octave></pitch><duration>8</duration><voice>2</voice><type>quarter</type><stem default-y="-8.55814">up</stem><staff>2</staff></note><note default-x="85.5"><chord /><pitch><step>F</step><octave>3</octave></pitch><duration>8</duration><voice>2</voice><type>quarter</type><stem default-y="-21.39535">up</stem><staff>2</staff></note><note default-x="121.5"><pitch><step>G</step><octave>2</octave></pitch><duration>8</duration><voice>2</voice><type>quarter</type><stem default-y="4.27907">up</stem><staff>2</staff></note><note default-x="121.5"><chord /><pitch><step>D</step><octave>3</octave></pitch><duration>8</duration><voice>2</voice><type>quarter</type><stem default-y="-12.83721">up</stem><staff>2</staff></note><note default-x="121.5"><chord /><pitch><step>G</step><octave>3</octave></pitch><duration>8</duration><voice>2</voice><type>quarter</type><stem default-y="-25.67442">up</stem><staff>2</staff></note></measure><!--=========================================================--><measure number="6" width="157.5"><note default-x="13.5"><pitch><step>E</step><octave>4</octave></pitch><duration>16</duration><voice>1</voice><type>half</type><stem default-y="4.27907">up</stem><staff>1</staff></note><note default-x="13.5"><chord /><pitch><step>G</step><octave>4</octave></pitch><duration>16</duration><voice>1</voice><type>half</type><stem default-y="-4.27907">up</stem><staff>1</staff></note><note default-x="85.5"><pitch><step>E</step><octave>4</octave></pitch><duration>8</duration><voice>1</voice><type>quarter</type><stem default-y="4.27907">up</stem><staff>1</staff></note><note default-x="85.5"><chord /><pitch><step>G</step><octave>4</octave></pitch><duration>8</duration><voice>1</voice><type>quarter</type><stem default-y="-4.27907">up</stem><staff>1</staff></note><note default-x="121.5"><pitch><step>C</step><octave>5</octave></pitch><duration>8</duration><voice>1</voice><type>quarter</type><stem default-y="42.7907">down</stem><staff>1</staff></note><backup><duration>32</duration></backup><note default-x="13.5"><pitch><step>C</step><octave>3</octave></pitch><duration>8</duration><voice>2</voice><type>quarter</type><stem default-y="51.34884">down</stem><staff>2</staff><notations><slur default-x="18.0" default-y="-3.2093024" number="1" type="start" /></notations></note><note default-x="13.5"><chord /><pitch><step>E</step><octave>3</octave></pitch><duration>8</duration><voice>2</voice><type>quarter</type><stem default-y="42.7907">down</stem><staff>2</staff></note><note default-x="13.5"><chord /><pitch><step>G</step><octave>3</octave></pitch><duration>8</duration><voice>2</voice><type>quarter</type><stem default-y="34.23256">down</stem><staff>2</staff></note><note default-x="49.5"><pitch><step>C</step><octave>2</octave></pitch><duration>8</duration><voice>2</voice><type>quarter</type><stem default-y="21.395351">up</stem><staff>2</staff><notations><slur number="1" type="stop" /></notations></note><note default-x="85.5"><pitch><step>C</step><octave>3</octave></pitch><duration>16</duration><voice>2</voice><type>half</type><stem default-y="51.34884">down</stem><staff>2</staff></note><note default-x="85.5"><chord /><pitch><step>G</step><octave>3</octave></pitch><duration>16</duration><voice>2</voice><type>half</type><stem default-y="34.23256">down</stem><staff>2</staff></note></measure><!--=========================================================--><measure number="7" width="151.5"><note default-x="13.5"><pitch><step>G</step><octave>4</octave></pitch><duration>8</duration><voice>1</voice><type>quarter</type><stem default-y="-4.27907">up</stem><staff>1</staff></note><note default-x="49.5"><pitch><step>C</step><octave>5</octave></pitch><duration>8</duration><voice>1</voice><type>quarter</type><stem default-y="42.7907">down</stem><staff>1</staff></note><note default-x="85.5"><pitch><step>G</step><octave>4</octave></pitch><duration>12</duration><voice>1</voice><type>quarter</type><dot /><stem default-y="55.627907">down</stem><staff>1</staff></note><note default-x="85.5"><chord /><pitch><step>C</step><octave>5</octave></pitch><duration>12</duration><voice>1</voice><type>quarter</type><dot /><stem default-y="42.7907">down</stem><staff>1</staff></note><note default-x="85.5"><chord /><pitch><step>E</step><octave>5</octave></pitch><duration>12</duration><voice>1</voice><type>quarter</type><dot /><stem default-y="34.23256">down</stem><staff>1</staff></note><note default-x="124.5"><pitch><step>D</step><octave>5</octave></pitch><duration>4</duration><voice>1</voice><type>eighth</type><stem default-y="38.511627">down</stem><staff>1</staff><beam number="1" /></note><backup><duration>32</duration></backup><note default-x="13.5"><pitch><step>C</step><octave>2</octave></pitch><duration>16</duration><voice>2</voice><type>half</type><stem default-y="21.395351">up</stem><staff>2</staff></note><note default-x="85.5"><pitch><step>C</step><octave>3</octave></pitch><duration>12</duration><voice>2</voice><type>quarter</type><dot /><stem default-y="51.34884">down</stem><staff>2</staff></note><note default-x="85.5"><chord /><pitch><step>F</step><octave>3</octave></pitch><duration>12</duration><voice>2</voice><type>quarter</type><dot /><stem default-y="38.511627">down</stem><staff>2</staff></note><note default-x="85.5"><chord /><pitch><step>A</step><octave>3</octave></pitch><duration>12</duration><voice>2</voice><type>quarter</type><dot /><stem default-y="29.95349">down</stem><staff>2</staff></note><note default-x="124.5"><pitch><step>B</step><octave>2</octave></pitch><duration>4</duration><voice>2</voice><type>eighth</type><stem default-y="55.627907">down</stem><staff>2</staff><beam number="1" /></note><note default-x="124.5"><chord /><pitch><step>B</step><octave>3</octave></pitch><duration>4</duration><voice>2</voice><type>eighth</type><stem default-y="25.67442">down</stem><staff>2</staff><beam number="1" /></note></measure><!--=========================================================--><measure number="8" width="211.5"><note default-x="13.5"><pitch><step>C</step><octave>5</octave></pitch><duration>4</duration><voice>1</voice><type>eighth</type><stem default-y="42.790703">down</stem><staff>1</staff><beam number="1">begin</beam></note><note default-x="40.5"><pitch><step>B</step><octave>4</octave></pitch><duration>4</duration><voice>1</voice><type>eighth</type><stem default-y="47.06977">down</stem><staff>1</staff><beam number="1">end</beam></note><note default-x="67.5"><pitch><step>A</step><octave>4</octave></pitch><duration>12</duration><voice>1</voice><type>quarter</type><dot /><stem default-y="-8.55814">up</stem><staff>1</staff></note><note default-x="148.5"><pitch><step>G</step><octave>4</octave></pitch><duration>4</duration><voice>1</voice><type>eighth</type><stem default-y="-4.27907">up</stem><staff>1</staff><beam number="1" /></note><note default-x="175.5"><pitch><step>C</step><octave>4</octave></pitch><duration>8</duration><voice>1</voice><type>quarter</type><stem default-y="12.837208">up</stem><staff>1</staff></note><note default-x="175.5"><chord /><pitch><step>E</step><octave>4</octave></pitch><duration>8</duration><voice>1</voice><type>quarter</type><stem default-y="4.27907">up</stem><staff>1</staff></note><note default-x="175.5"><chord /><pitch><step>G</step><octave>4</octave></pitch><duration>8</duration><voice>1</voice><type>quarter</type><stem default-y="-4.27907">up</stem><staff>1</staff></note><backup><duration>32</duration></backup><note default-x="13.5"><pitch><step>A</step><octave>2</octave></pitch><duration>4</duration><voice>2</voice><type>eighth</type><stem default-y="0.0">up</stem><staff>2</staff><beam number="1">begin</beam></note><note default-x="13.5"><chord /><pitch><step>A</step><octave>3</octave></pitch><duration>4</duration><voice>2</voice><type>eighth</type><stem default-y="-29.95349">up</stem><staff>2</staff><beam number="1" /></note><note default-x="40.5"><pitch><step>G</step><octave>2</octave></pitch><duration>4</duration><voice>2</voice><type>eighth</type><stem default-y="-25.67442">up</stem><staff>2</staff><beam number="1">end</beam></note><note default-x="40.5"><chord /><pitch><step>G</step><octave>3</octave></pitch><duration>4</duration><voice>2</voice><type>eighth</type><stem default-y="-25.67442">up</stem><staff>2</staff><beam number="1" /></note><note default-x="67.5"><pitch><step>F</step><octave>2</octave></pitch><duration>12</duration><voice>2</voice><type>quarter</type><dot /><stem default-y="8.55814">up</stem><staff>2</staff></note><note default-x="67.5"><chord /><pitch><step>F</step><octave>3</octave></pitch><duration>12</duration><voice>2</voice><type>quarter</type><dot /><stem default-y="-21.39535">up</stem><staff>2</staff></note><note default-x="148.5"><pitch><step>C</step><octave>3</octave></pitch><duration>4</duration><voice>2</voice><type>eighth</type><stem default-y="-8.55814">up</stem><staff>2</staff><beam number="1" /></note><note default-x="175.5"><pitch><step>C</step><octave>2</octave></pitch><duration>8</duration><tie type="start" /><voice>2</voice><type>quarter</type><stem default-y="21.395351">up</stem><staff>2</staff><notations><tied type="start" /></notations></note><note default-x="175.5"><chord /><pitch><step>G</step><octave>2</octave></pitch><duration>8</duration><tie type="start" /><voice>2</voice><type>quarter</type><stem default-y="4.27907">up</stem><staff>2</staff><notations><tied type="start" /></notations></note><note default-x="175.5"><chord /><pitch><step>C</step><octave>3</octave></pitch><duration>8</duration><tie type="start" /><voice>2</voice><type>quarter</type><stem default-y="-8.55814">up</stem><staff>2</staff><notations><tied type="start" /></notations></note></measure><!--=========================================================--><measure number="9" width="229.5"><note default-x="13.5"><pitch><step>C</step><octave>4</octave></pitch><duration>8</duration><voice>1</voice><type>quarter</type><stem default-y="12.837208">up</stem><staff>1</staff></note><note default-x="13.5"><chord /><pitch><step>E</step><octave>4</octave></pitch><duration>8</duration><voice>1</voice><type>quarter</type><stem default-y="4.27907">up</stem><staff>1</staff></note><note default-x="13.5"><chord /><pitch><step>C</step><octave>5</octave></pitch><duration>8</duration><voice>1</voice><type>quarter</type><stem default-y="-17.11628">up</stem><staff>1</staff></note><note default-x="49.5"><pitch><step>C</step><octave>4</octave></pitch><duration>8</duration><voice>1</voice><type>quarter</type><stem default-y="12.837208">up</stem><staff>1</staff></note><note default-x="49.5"><chord /><pitch><step>G</step><octave>4</octave></pitch><duration>8</duration><voice>1</voice><type>quarter</type><stem default-y="-4.27907">up</stem><staff>1</staff></note><note default-x="85.5"><pitch><step>C</step><octave>4</octave></pitch><duration>4</duration><voice>1</voice><type>eighth</type><stem default-y="4.27907">up</stem><staff>1</staff><beam number="1">begin</beam></note><note default-x="85.5"><chord /><pitch><step>E</step><octave>4</octave></pitch><duration>4</duration><voice>1</voice><type>eighth</type><stem default-y="4.27907">up</stem><staff>1</staff><beam number="1" /></note><note default-x="112.5"><pitch><step>D</step><octave>4</octave></pitch><duration>4</duration><voice>1</voice><type>eighth</type><stem default-y="8.55814">up</stem><staff>1</staff><beam number="1">end</beam></note><note default-x="112.5"><chord /><pitch><step>F</step><octave>4</octave></pitch><duration>4</duration><voice>1</voice><type>eighth</type><stem default-y="0.0">up</stem><staff>1</staff><beam number="1" /></note><note default-x="139.5"><pitch><step>E</step><octave>4</octave></pitch><duration>8</duration><voice>1</voice><type>quarter</type><stem default-y="4.27907">up</stem><staff>1</staff></note><note default-x="139.5"><chord /><pitch><step>G</step><octave>4</octave></pitch><duration>8</duration><voice>1</voice><type>quarter</type><stem default-y="-4.27907">up</stem><staff>1</staff></note><backup><duration>32</duration></backup><note default-x="13.5"><pitch><step>C</step><octave>2</octave></pitch><duration>8</duration><tie type="stop" /><voice>2</voice><type>quarter</type><stem default-y="21.395351">up</stem><staff>2</staff><notations><tied type="stop" /></notations></note><note default-x="13.5"><chord /><pitch><step>G</step><octave>2</octave></pitch><duration>8</duration><tie type="stop" /><voice>2</voice><type>quarter</type><stem default-y="4.27907">up</stem><staff>2</staff><notations><tied type="stop" /></notations></note><note default-x="13.5"><chord /><pitch><step>C</step><octave>3</octave></pitch><duration>8</duration><tie type="stop" /><voice>2</voice><type>quarter</type><stem default-y="-8.55814">up</stem><staff>2</staff><notations><tied type="stop" /></notations></note><note default-x="49.5"><pitch><step>C</step><octave>3</octave></pitch><duration>8</duration><voice>2</voice><type>quarter</type><stem default-y="51.34884">down</stem><staff>2</staff></note><note default-x="49.5"><chord /><pitch><step>E</step><octave>3</octave></pitch><duration>8</duration><voice>2</voice><type>quarter</type><stem default-y="42.7907">down</stem><staff>2</staff></note><note default-x="49.5"><chord /><pitch><step>G</step><octave>3</octave></pitch><duration>8</duration><voice>2</voice><type>quarter</type><stem default-y="34.23256">down</stem><staff>2</staff></note><note default-x="85.5"><pitch><step>C</step><octave>3</octave></pitch><duration>4</duration><voice>2</voice><type>eighth</type><stem default-y="51.34884">down</stem><staff>2</staff><beam number="1">begin</beam></note><note default-x="85.5"><chord /><pitch><step>G</step><octave>3</octave></pitch><duration>4</duration><voice>2</voice><type>eighth</type><stem default-y="34.23256">down</stem><staff>2</staff><beam number="1" /></note><note default-x="112.5"><pitch><step>C</step><octave>3</octave></pitch><duration>4</duration><voice>2</voice><type>eighth</type><stem default-y="51.34884">down</stem><staff>2</staff><beam number="1">end</beam></note><note default-x="112.5"><chord /><pitch><step>A</step><octave>3</octave></pitch><duration>4</duration><voice>2</voice><type>eighth</type><stem default-y="29.95349">down</stem><staff>2</staff><beam number="1" /></note><note default-x="139.5"><pitch><step>C</step><octave>3</octave></pitch><duration>2</duration><voice>2</voice><type>16th</type><stem default-y="51.34884">down</stem><staff>2</staff><beam number="1">begin</beam><beam number="2">begin</beam><notations><slur default-x="144.0" default-y="13.906977" number="1" type="start" /></notations></note><note default-x="162.0"><pitch><step>E</step><octave>3</octave></pitch><duration>2</duration><voice>2</voice><type>16th</type><stem default-y="49.92248">down</stem><staff>2</staff><beam number="1">continue</beam><beam number="2">continue</beam></note><note default-x="184.5"><pitch><step>G</step><octave>3</octave></pitch><duration>2</duration><voice>2</voice><type>16th</type><stem default-y="48.496124">down</stem><staff>2</staff><beam number="1">continue</beam><beam number="2">continue</beam></note><note default-x="207.0"><pitch><step>C</step><octave>4</octave></pitch><duration>2</duration><voice>2</voice><type>16th</type><stem default-y="47.06977">down</stem><staff>2</staff><beam number="1">end</beam><beam number="2">end</beam><notations><slur number="1" type="stop" /></notations></note></measure><!--=========================================================--><measure number="10" width="207.0"><note default-x="13.5"><pitch><step>E</step><octave>4</octave></pitch><duration>8</duration><voice>1</voice><type>quarter</type><stem default-y="4.27907">up</stem><staff>1</staff></note><note default-x="13.5"><chord /><pitch><step>C</step><octave>5</octave></pitch><duration>8</duration><voice>1</voice><type>quarter</type><stem default-y="-17.11628">up</stem><staff>1</staff></note><note default-x="49.5"><pitch><step>E</step><octave>4</octave></pitch><duration>16</duration><voice>1</voice><type>half</type><stem default-y="4.27907">up</stem><staff>1</staff></note><note default-x="49.5"><chord /><pitch><step>G</step><octave>4</octave></pitch><duration>16</duration><voice>1</voice><type>half</type><stem default-y="-4.27907">up</stem><staff>1</staff></note><note default-x="117.0"><pitch><step>E</step><octave>4</octave></pitch><duration>8</duration><tie type="start" /><voice>1</voice><type>quarter</type><stem default-y="4.27907">up</stem><staff>1</staff><notations><tied type="start" /></notations></note><note default-x="117.0"><chord /><pitch><step>C</step><octave>5</octave></pitch><duration>8</duration><tie type="start" /><voice>1</voice><type>quarter</type><stem default-y="-17.11628">up</stem><staff>1</staff><notations><tied type="start" /></notations></note><backup><duration>32</duration></backup><note default-x="13.5"><pitch><step>C</step><octave>2</octave></pitch><duration>8</duration><voice>2</voice><type>quarter</type><stem default-y="21.395351">up</stem><staff>2</staff></note><note default-x="13.5"><chord /><pitch><step>C</step><octave>3</octave></pitch><duration>8</duration><voice>2</voice><type>quarter</type><stem default-y="-8.55814">up</stem><staff>2</staff></note><note default-x="49.5"><pitch><step>G</step><octave>2</octave></pitch><duration>12</duration><voice>2</voice><type>quarter</type><dot /><stem default-y="4.27907">up</stem><staff>2</staff></note><note default-x="49.5"><chord /><pitch><step>D</step><octave>3</octave></pitch><duration>12</duration><voice>2</voice><type>quarter</type><dot /><stem default-y="-12.83721">up</stem><staff>2</staff></note><note default-x="49.5"><chord /><pitch><step>G</step><octave>3</octave></pitch><duration>12</duration><voice>2</voice><type>quarter</type><dot /><stem default-y="-25.67442">up</stem><staff>2</staff></note><note default-x="90.0"><pitch><step>G</step><octave>2</octave></pitch><duration>4</duration><voice>2</voice><type>eighth</type><stem default-y="4.27907">up</stem><staff>2</staff><beam number="1" /></note><note default-x="117.0"><pitch><step>C</step><octave>2</octave></pitch><duration>8</duration><voice>2</voice><type>quarter</type><stem default-y="21.395351">up</stem><staff>2</staff><notations><slur default-x="121.5" default-y="58.83721" number="1" type="start" /></notations></note><note default-x="117.0"><chord /><pitch><step>C</step><octave>3</octave></pitch><duration>8</duration><voice>2</voice><type>quarter</type><stem default-y="-8.55814">up</stem><staff>2</staff></note></measure><!--=========================================================--><measure number="11" width="247.5"><note default-x="13.5"><pitch><step>E</step><octave>4</octave></pitch><duration>8</duration><tie type="stop" /><voice>1</voice><type>quarter</type><stem default-y="4.27907">up</stem><staff>1</staff><notations><tied type="stop" /></notations></note><note default-x="13.5"><chord /><pitch><step>C</step><octave>5</octave></pitch><duration>8</duration><tie type="stop" /><voice>1</voice><type>quarter</type><stem default-y="-17.11628">up</stem><staff>1</staff><notations><tied type="stop" /></notations></note><note default-x="103.5"><pitch><step>F</step><octave>4</octave></pitch><duration>8</duration><voice>1</voice><type>quarter</type><stem default-y="0.0">up</stem><staff>1</staff><notations><articulations><staccato /></articulations></notations></note><note default-x="103.5"><chord /><pitch><step>A</step><octave>4</octave></pitch><duration>8</duration><voice>1</voice><type>quarter</type><stem default-y="-8.55814">up</stem><staff>1</staff></note><note default-x="139.5"><pitch><step>E</step><octave>4</octave></pitch><duration>4</duration><voice>1</voice><type>eighth</type><stem default-y="4.27907">up</stem><staff>1</staff><beam number="1">begin</beam><notations><articulations><staccato /></articulations></notations></note><note default-x="139.5"><chord /><pitch><step>G</step><octave>4</octave></pitch><duration>4</duration><voice>1</voice><type>eighth</type><stem default-y="-4.27907">up</stem><staff>1</staff><beam number="1" /></note><note default-x="166.5"><pitch><step>C</step><octave>4</octave></pitch><duration>4</duration><voice>1</voice><type>eighth</type><stem default-y="0.0">up</stem><staff>1</staff><beam number="1">end</beam><notations><articulations><staccato /></articulations></notations></note><note default-x="166.5"><chord /><pitch><step>F</step><octave>4</octave></pitch><duration>4</duration><voice>1</voice><type>eighth</type><stem default-y="0.0">up</stem><staff>1</staff><beam number="1" /></note><note default-x="193.5"><pitch><step>E</step><octave>4</octave></pitch><duration>4</duration><voice>1</voice><type>eighth</type><stem default-y="4.27907">up</stem><staff>1</staff><beam number="1">begin</beam><notations><articulations><staccato /></articulations></notations></note><note default-x="220.5"><pitch><step>D</step><octave>4</octave></pitch><duration>4</duration><voice>1</voice><type>eighth</type><stem default-y="8.55814">up</stem><staff>1</staff><beam number="1">end</beam><notations><articulations><staccato /></articulations></notations></note><note default-x="220.5"><chord /><pitch><step>F</step><octave>4</octave></pitch><duration>4</duration><voice>1</voice><type>eighth</type><stem default-y="0.0">up</stem><staff>1</staff><beam number="1" /></note><backup><duration>32</duration></backup><note default-x="13.5"><pitch><step>A</step><octave>2</octave></pitch><duration>4</duration><voice>2</voice><type>eighth</type><stem default-y="0.0">up</stem><staff>2</staff><beam number="1">begin</beam></note><note default-x="58.5"><pitch><step>G</step><octave>2</octave></pitch><duration>4</duration><voice>2</voice><type>eighth</type><stem default-y="4.27907">up</stem><staff>2</staff><beam number="1">end</beam><notations><slur number="1" type="stop" /></notations></note><note default-x="103.5"><pitch><step>A</step><octave>2</octave></pitch><duration>8</duration><voice>2</voice><type>quarter</type><stem default-y="59.90698">down</stem><staff>2</staff></note><note default-x="103.5"><chord /><pitch><step>A</step><octave>3</octave></pitch><duration>8</duration><voice>2</voice><type>quarter</type><stem default-y="29.95349">down</stem><staff>2</staff></note><note default-x="139.5"><pitch><step>A</step><octave>2</octave></pitch><duration>8</duration><voice>2</voice><type>quarter</type><stem default-y="0.0">up</stem><staff>2</staff></note><note default-x="139.5"><chord /><pitch><step>D</step><octave>3</octave></pitch><duration>8</duration><voice>2</voice><type>quarter</type><stem default-y="-12.83721">up</stem><staff>2</staff></note><note default-x="139.5"><chord /><pitch><step>G</step><octave>3</octave></pitch><duration>8</duration><voice>2</voice><type>quarter</type><stem default-y="-25.67442">up</stem><staff>2</staff></note><note default-x="193.5"><pitch><step>E</step><octave>3</octave></pitch><duration>4</duration><voice>2</voice><type>eighth</type><stem default-y="42.790703">down</stem><staff>2</staff><beam number="1">begin</beam></note><note default-x="193.5"><chord /><pitch><step>G</step><octave>3</octave></pitch><duration>4</duration><voice>2</voice><type>eighth</type><stem default-y="34.23256">down</stem><staff>2</staff><beam number="1" /></note><note default-x="220.5"><pitch><step>D</step><octave>3</octave></pitch><duration>4</duration><voice>2</voice><type>eighth</type><stem default-y="47.06977">down</stem><staff>2</staff><beam number="1">end</beam></note><note default-x="220.5"><chord /><pitch><step>G</step><octave>3</octave></pitch><duration>4</duration><voice>2</voice><type>eighth</type><stem default-y="34.23256">down</stem><staff>2</staff><beam number="1" /></note></measure><!--=========================================================--><measure number="12" width="241.8372"><note default-x="13.5"><pitch><step>C</step><octave>4</octave></pitch><duration>8</duration><voice>1</voice><type>quarter</type><stem default-y="12.837208">up</stem><staff>1</staff><notations><articulations><staccato /></articulations></notations></note><note default-x="13.5"><chord /><pitch><step>E</step><octave>4</octave></pitch><duration>8</duration><voice>1</voice><type>quarter</type><stem default-y="4.27907">up</stem><staff>1</staff></note><note default-x="67.5"><pitch><step>B</step><octave>3</octave></pitch><duration>8</duration><voice>1</voice><type>quarter</type><stem default-y="17.11628">up</stem><staff>1</staff><notations><articulations><staccato /></articulations></notations></note><note default-x="67.5"><chord /><pitch><step>D</step><octave>4</octave></pitch><duration>8</duration><voice>1</voice><type>quarter</type><stem default-y="8.55814">up</stem><staff>1</staff></note><note default-x="121.5"><pitch><step>C</step><octave>4</octave></pitch><duration>16</duration><voice>1</voice><type>half</type><stem default-y="12.837208">up</stem><staff>1</staff></note><note default-x="121.5"><chord /><pitch><step>C</step><octave>5</octave></pitch><duration>16</duration><voice>1</voice><type>half</type><stem default-y="-17.11628">up</stem><staff>1</staff></note><backup><duration>32</duration></backup><note default-x="13.5"><pitch><step>C</step><octave>3</octave></pitch><duration>8</duration><voice>2</voice><type>quarter</type><stem default-y="51.34884">down</stem><staff>2</staff></note><note default-x="13.5"><chord /><pitch><step>E</step><octave>3</octave></pitch><duration>8</duration><voice>2</voice><type>quarter</type><stem default-y="42.7907">down</stem><staff>2</staff></note><note default-x="13.5"><chord /><pitch><step>G</step><octave>3</octave></pitch><duration>8</duration><voice>2</voice><type>quarter</type><stem default-y="34.23256">down</stem><staff>2</staff></note><note default-x="67.5"><pitch><step>G</step><octave>2</octave></pitch><duration>4</duration><voice>2</voice><type>eighth</type><stem default-y="-8.55814">up</stem><staff>2</staff><beam number="1">begin</beam></note><note default-x="94.5"><pitch><step>D</step><octave>3</octave></pitch><duration>4</duration><voice>2</voice><type>eighth</type><stem default-y="-12.83721">up</stem><staff>2</staff><beam number="1">end</beam></note><note default-x="121.5"><pitch><step>G</step><octave>2</octave></pitch><duration>8</duration><voice>2</voice><type>quarter</type><stem default-y="4.27907">up</stem><staff>2</staff></note><note default-x="121.5"><chord /><pitch><step>G</step><octave>3</octave></pitch><duration>8</duration><voice>2</voice><type>quarter</type><stem default-y="-25.67442">up</stem><staff>2</staff></note><note default-x="174.0"><pitch><step>F</step><octave>2</octave></pitch><duration>8</duration><voice>2</voice><type>quarter</type><stem default-y="8.55814">up</stem><staff>2</staff></note><note default-x="174.0"><chord /><pitch><step>F</step><octave>3</octave></pitch><duration>8</duration><voice>2</voice><type>quarter</type><stem default-y="-21.39535">up</stem><staff>2</staff></note><barline location="right"><bar-style>light-heavy</bar-style><repeat direction="backward" /></barline></measure><!--=========================================================--><measure number="13" width="157.5"><note default-x="13.5"><rest /><duration>16</duration><voice>1</voice><type>half</type><staff>1</staff></note><note default-x="85.5"><pitch><step>F</step><octave>4</octave></pitch><duration>8</duration><voice>1</voice><type>quarter</type><stem default-y="0.0">up</stem><staff>1</staff></note><note default-x="85.5"><chord /><pitch><step>C</step><octave>5</octave></pitch><duration>8</duration><voice>1</voice><type>quarter</type><stem default-y="-17.11628">up</stem><staff>1</staff></note><note default-x="121.5"><pitch><step>C</step><octave>5</octave></pitch><duration>8</duration><voice>1</voice><type>quarter</type><stem default-y="42.7907">down</stem><staff>1</staff></note><note default-x="121.5"><chord /><pitch><step>F</step><octave>5</octave></pitch><duration>8</duration><voice>1</voice><type>quarter</type><stem default-y="29.95349">down</stem><staff>1</staff></note><backup><duration>32</duration></backup><note default-x="13.5"><pitch><step>C</step><octave>2</octave></pitch><duration>8</duration><voice>2</voice><type>quarter</type><stem default-y="21.395351">up</stem><staff>2</staff></note><note default-x="13.5"><chord /><pitch><step>C</step><octave>3</octave></pitch><duration>8</duration><voice>2</voice><type>quarter</type><stem default-y="-8.55814">up</stem><staff>2</staff></note><note default-x="49.5"><pitch><step>F</step><octave>2</octave></pitch><duration>8</duration><voice>2</voice><type>quarter</type><stem default-y="8.55814">up</stem><staff>2</staff></note><note default-x="49.5"><chord /><pitch><step>F</step><octave>3</octave></pitch><duration>8</duration><voice>2</voice><type>quarter</type><stem default-y="-21.39535">up</stem><staff>2</staff></note><note default-x="85.5"><pitch><step>F</step><octave>2</octave></pitch><duration>16</duration><voice>2</voice><type>half</type><stem default-y="8.55814">up</stem><staff>2</staff></note><note default-x="85.5"><chord /><pitch><step>C</step><octave>3</octave></pitch><duration>16</duration><voice>2</voice><type>half</type><stem default-y="-8.55814">up</stem><staff>2</staff></note><note default-x="85.5"><chord /><pitch><step>F</step><octave>3</octave></pitch><duration>16</duration><voice>2</voice><type>half</type><stem default-y="-21.39535">up</stem><staff>2</staff></note></measure><!--=========================================================--><measure number="14" width="157.5"><note default-x="13.5"><pitch><step>F</step><octave>4</octave></pitch><duration>8</duration><voice>1</voice><type>quarter</type><stem default-y="0.0">up</stem><staff>1</staff></note><note default-x="13.5"><chord /><pitch><step>C</step><octave>5</octave></pitch><duration>8</duration><voice>1</voice><type>quarter</type><stem default-y="-17.11628">up</stem><staff>1</staff></note><note default-x="49.5"><pitch><step>C</step><octave>4</octave></pitch><duration>8</duration><voice>1</voice><type>quarter</type><stem default-y="12.837208">up</stem><staff>1</staff></note><note default-x="49.5"><chord /><pitch><step>F</step><octave>4</octave></pitch><duration>8</duration><voice>1</voice><type>quarter</type><stem default-y="0.0">up</stem><staff>1</staff></note><note default-x="85.5"><pitch><step>C</step><octave>4</octave></pitch><duration>8</duration><voice>1</voice><type>quarter</type><stem default-y="12.837208">up</stem><staff>1</staff></note><note default-x="85.5"><chord /><pitch><step>C</step><octave>5</octave></pitch><duration>8</duration><voice>1</voice><type>quarter</type><stem default-y="-17.11628">up</stem><staff>1</staff></note><note default-x="121.5"><pitch><step>F</step><octave>4</octave></pitch><duration>8</duration><voice>1</voice><type>quarter</type><stem default-y="59.90698">down</stem><staff>1</staff></note><note default-x="121.5"><chord /><pitch><step>F</step><octave>5</octave></pitch><duration>8</duration><voice>1</voice><type>quarter</type><stem default-y="29.95349">down</stem><staff>1</staff></note><backup><duration>32</duration></backup><note default-x="13.5"><pitch><step>A</step><octave>2</octave></pitch><duration>16</duration><voice>2</voice><type>half</type><stem default-y="59.90698">down</stem><staff>2</staff></note><note default-x="13.5"><chord /><pitch><step>A</step><octave>3</octave></pitch><duration>16</duration><voice>2</voice><type>half</type><stem default-y="29.95349">down</stem><staff>2</staff></note><note default-x="85.5"><pitch><step>B</step><alter>-1</alter><octave>2</octave></pitch><duration>16</duration><voice>2</voice><type>half</type><accidental>flat</accidental><stem default-y="55.627907">down</stem><staff>2</staff></note><note default-x="85.5"><chord /><pitch><step>B</step><alter>-1</alter><octave>3</octave></pitch><duration>16</duration><voice>2</voice><type>half</type><accidental>flat</accidental><stem default-y="25.67442">down</stem><staff>2</staff></note></measure><!--=========================================================--><measure number="15" width="175.5"><note default-x="13.5"><pitch><step>F</step><octave>4</octave></pitch><duration>16</duration><voice>1</voice><type>half</type><stem default-y="0.0">up</stem><staff>1</staff></note><note default-x="13.5"><chord /><pitch><step>A</step><octave>4</octave></pitch><duration>16</duration><voice>1</voice><type>half</type><stem default-y="-8.55814">up</stem><staff>1</staff></note><note default-x="13.5"><chord /><pitch><step>C</step><octave>5</octave></pitch><duration>16</duration><voice>1</voice><type>half</type><stem default-y="-17.11628">up</stem><staff>1</staff></note><note default-x="67.5"><pitch><step>F</step><octave>4</octave></pitch><duration>12</duration><voice>1</voice><type>quarter</type><dot /><stem default-y="59.90698">down</stem><staff>1</staff></note><note default-x="67.5"><chord /><pitch><step>A</step><octave>4</octave></pitch><duration>12</duration><voice>1</voice><type>quarter</type><dot /><stem default-y="51.34884">down</stem><staff>1</staff></note><note default-x="67.5"><chord /><pitch><step>C</step><octave>5</octave></pitch><duration>12</duration><voice>1</voice><type>quarter</type><dot /><stem default-y="42.7907">down</stem><staff>1</staff></note><note default-x="67.5"><chord /><pitch><step>F</step><octave>5</octave></pitch><duration>12</duration><voice>1</voice><type>quarter</type><dot /><stem default-y="29.95349">down</stem><staff>1</staff></note><note default-x="148.5"><pitch><step>F</step><octave>4</octave></pitch><duration>4</duration><voice>1</voice><type>eighth</type><stem default-y="0.0">up</stem><staff>1</staff><beam number="1" /></note><note default-x="148.5"><chord /><pitch><step>B</step><alter>-1</alter><octave>4</octave></pitch><duration>4</duration><voice>1</voice><type>eighth</type><accidental>flat</accidental><stem default-y="-12.83721">up</stem><staff>1</staff><beam number="1" /></note><note default-x="148.5"><chord /><pitch><step>D</step><octave>5</octave></pitch><duration>4</duration><voice>1</voice><type>eighth</type><stem default-y="-21.39535">up</stem><staff>1</staff><beam number="1" /></note><backup><duration>32</duration></backup><note default-x="13.5"><pitch><step>F</step><octave>2</octave></pitch><duration>16</duration><voice>2</voice><type>half</type><stem default-y="8.55814">up</stem><staff>2</staff></note><note default-x="13.5"><chord /><pitch><step>C</step><octave>3</octave></pitch><duration>16</duration><voice>2</voice><type>half</type><stem default-y="-8.55814">up</stem><staff>2</staff></note><note default-x="13.5"><chord /><pitch><step>F</step><octave>3</octave></pitch><duration>16</duration><voice>2</voice><type>half</type><stem default-y="-21.39535">up</stem><staff>2</staff></note><note default-x="67.5"><pitch><step>F</step><octave>2</octave></pitch><duration>4</duration><voice>2</voice><type>eighth</type><stem default-y="4.27907">up</stem><staff>2</staff><beam number="1">begin</beam></note><note default-x="94.5"><pitch><step>A</step><octave>2</octave></pitch><duration>4</duration><voice>2</voice><type>eighth</type><stem default-y="0.0">up</stem><staff>2</staff><beam number="1">end</beam></note><note default-x="121.5"><pitch><step>C</step><octave>3</octave></pitch><duration>4</duration><voice>2</voice><type>eighth</type><stem default-y="51.34884">down</stem><staff>2</staff><beam number="1">begin</beam></note><note default-x="148.5"><pitch><step>F</step><octave>3</octave></pitch><duration>4</duration><voice>2</voice><type>eighth</type><stem default-y="47.06977">down</stem><staff>2</staff><beam number="1">end</beam></note></measure><!--=========================================================--><measure number="16" width="193.5"><note default-x="13.5"><pitch><step>F</step><octave>4</octave></pitch><duration>4</duration><voice>1</voice><type>eighth</type><stem default-y="0.0">up</stem><staff>1</staff><beam number="1">begin</beam></note><note default-x="13.5"><chord /><pitch><step>A</step><octave>4</octave></pitch><duration>4</duration><voice>1</voice><type>eighth</type><stem default-y="-8.55814">up</stem><staff>1</staff><beam number="1" /></note><note default-x="13.5"><chord /><pitch><step>C</step><octave>5</octave></pitch><duration>4</duration><voice>1</voice><type>eighth</type><stem default-y="-17.11628">up</stem><staff>1</staff><beam number="1" /></note><note default-x="40.5"><pitch><step>F</step><octave>4</octave></pitch><duration>4</duration><voice>1</voice><type>eighth</type><stem default-y="-12.83721">up</stem><staff>1</staff><beam number="1">end</beam></note><note default-x="40.5"><chord /><pitch><step>B</step><alter>-1</alter><octave>4</octave></pitch><duration>4</duration><voice>1</voice><type>eighth</type><accidental>flat</accidental><stem default-y="-12.83721">up</stem><staff>1</staff><beam number="1" /></note><note default-x="67.5"><pitch><step>F</step><octave>4</octave></pitch><duration>4</duration><voice>1</voice><type>eighth</type><stem default-y="-8.55814">up</stem><staff>1</staff><beam number="1">begin</beam></note><note default-x="67.5"><chord /><pitch><step>A</step><octave>4</octave></pitch><duration>4</duration><voice>1</voice><type>eighth</type><stem default-y="-8.55814">up</stem><staff>1</staff><beam number="1" /></note><note default-x="94.5"><pitch><step>F</step><octave>4</octave></pitch><duration>4</duration><voice>1</voice><type>eighth</type><stem default-y="0.0">up</stem><staff>1</staff><beam number="1">end</beam></note><note default-x="94.5"><chord /><pitch><step>B</step><alter>-1</alter><octave>4</octave></pitch><duration>4</duration><voice>1</voice><type>eighth</type><stem default-y="-12.83721">up</stem><staff>1</staff><beam number="1" /></note><note default-x="121.5"><pitch><step>F</step><octave>4</octave></pitch><duration>8</duration><voice>1</voice><type>quarter</type><stem default-y="0.0">up</stem><staff>1</staff></note><note default-x="121.5"><chord /><pitch><step>A</step><octave>4</octave></pitch><duration>8</duration><voice>1</voice><type>quarter</type><stem default-y="-8.55814">up</stem><staff>1</staff></note><note default-x="157.5"><pitch><step>C</step><octave>4</octave></pitch><duration>8</duration><voice>1</voice><type>quarter</type><stem default-y="12.837208">up</stem><staff>1</staff></note><note default-x="157.5"><chord /><pitch><step>E</step><octave>4</octave></pitch><duration>8</duration><voice>1</voice><type>quarter</type><stem default-y="4.27907">up</stem><staff>1</staff></note><note default-x="157.5"><chord /><pitch><step>G</step><octave>4</octave></pitch><duration>8</duration><voice>1</voice><type>quarter</type><stem default-y="-4.27907">up</stem><staff>1</staff></note><backup><duration>32</duration></backup><note default-x="13.5"><pitch><step>F</step><octave>2</octave></pitch><duration>4</duration><voice>2</voice><type>eighth</type><stem default-y="-29.95349">up</stem><staff>2</staff><beam number="1">begin</beam></note><note default-x="13.5"><chord /><pitch><step>F</step><octave>3</octave></pitch><duration>4</duration><voice>2</voice><type>eighth</type><stem default-y="-21.39535">up</stem><staff>2</staff><beam number="1" /></note><note default-x="40.5"><pitch><step>B</step><alter>-1</alter><octave>2</octave></pitch><duration>4</duration><voice>2</voice><type>eighth</type><accidental>flat</accidental><stem default-y="-4.27907">up</stem><staff>2</staff><beam number="1">end</beam></note><note default-x="40.5"><chord /><pitch><step>B</step><alter>-1</alter><octave>3</octave></pitch><duration>4</duration><voice>2</voice><type>eighth</type><accidental>flat</accidental><stem default-y="-34.23256">up</stem><staff>2</staff><beam number="1" /></note><note default-x="67.5"><pitch><step>B</step><alter>-1</alter><octave>2</octave></pitch><duration>4</duration><voice>2</voice><type>eighth</type><stem default-y="55.627907">down</stem><staff>2</staff><beam number="1">begin</beam></note><note default-x="67.5"><chord /><pitch><step>F</step><octave>3</octave></pitch><duration>4</duration><voice>2</voice><type>eighth</type><stem default-y="38.511627">down</stem><staff>2</staff><beam number="1" /></note><note default-x="67.5"><chord /><pitch><step>B</step><alter>-1</alter><octave>3</octave></pitch><duration>4</duration><voice>2</voice><type>eighth</type><stem default-y="25.67442">down</stem><staff>2</staff><beam number="1" /></note><note default-x="94.5"><pitch><step>B</step><alter>-1</alter><octave>2</octave></pitch><duration>4</duration><voice>2</voice><type>eighth</type><stem default-y="55.627907">down</stem><staff>2</staff><beam number="1">end</beam></note><note default-x="94.5"><chord /><pitch><step>F</step><octave>3</octave></pitch><duration>4</duration><voice>2</voice><type>eighth</type><stem default-y="38.511627">down</stem><staff>2</staff><beam number="1" /></note><note default-x="94.5"><chord /><pitch><step>B</step><alter>-1</alter><octave>3</octave></pitch><duration>4</duration><voice>2</voice><type>eighth</type><stem default-y="25.67442">down</stem><staff>2</staff><beam number="1" /></note><note default-x="121.5"><pitch><step>C</step><octave>3</octave></pitch><duration>8</duration><voice>2</voice><type>quarter</type><stem default-y="51.34884">down</stem><staff>2</staff></note><note default-x="121.5"><chord /><pitch><step>F</step><octave>3</octave></pitch><duration>8</duration><voice>2</voice><type>quarter</type><stem default-y="38.511627">down</stem><staff>2</staff></note><note default-x="121.5"><chord /><pitch><step>A</step><octave>3</octave></pitch><duration>8</duration><voice>2</voice><type>quarter</type><stem default-y="29.95349">down</stem><staff>2</staff></note><note default-x="157.5"><pitch><step>C</step><octave>3</octave></pitch><duration>8</duration><voice>2</voice><type>quarter</type><stem default-y="51.34884">down</stem><staff>2</staff></note><note default-x="157.5"><chord /><pitch><step>E</step><octave>3</octave></pitch><duration>8</duration><voice>2</voice><type>quarter</type><stem default-y="42.7907">down</stem><staff>2</staff></note><note default-x="157.5"><chord /><pitch><step>G</step><octave>3</octave></pitch><duration>8</duration><voice>2</voice><type>quarter</type><stem default-y="34.23256">down</stem><staff>2</staff></note></measure><!--=========================================================--><measure number="17" width="157.5"><note default-x="13.5"><pitch><step>B</step><alter>-1</alter><octave>3</octave></pitch><duration>8</duration><voice>1</voice><type>quarter</type><accidental>flat</accidental><stem default-y="17.11628">up</stem><staff>1</staff></note><note default-x="13.5"><chord /><pitch><step>D</step><octave>4</octave></pitch><duration>8</duration><voice>1</voice><type>quarter</type><stem default-y="8.55814">up</stem><staff>1</staff></note><note default-x="13.5"><chord /><pitch><step>F</step><octave>4</octave></pitch><duration>8</duration><voice>1</voice><type>quarter</type><stem default-y="0.0">up</stem><staff>1</staff></note><note default-x="49.5"><pitch><step>C</step><octave>4</octave></pitch><duration>8</duration><voice>1</voice><type>quarter</type><stem default-y="12.837208">up</stem><staff>1</staff></note><note default-x="49.5"><chord /><pitch><step>E</step><octave>4</octave></pitch><duration>8</duration><voice>1</voice><type>quarter</type><stem default-y="4.27907">up</stem><staff>1</staff></note><note default-x="85.5"><pitch><step>F</step><octave>3</octave></pitch><duration>16</duration><voice>1</voice><type>half</type><stem default-y="29.953487">up</stem><staff>1</staff></note><note default-x="85.5"><chord /><pitch><step>C</step><octave>4</octave></pitch><duration>16</duration><voice>1</voice><type>half</type><stem default-y="12.837208">up</stem><staff>1</staff></note><note default-x="85.5"><chord /><pitch><step>F</step><octave>4</octave></pitch><duration>16</duration><voice>1</voice><type>half</type><stem default-y="0.0">up</stem><staff>1</staff></note><backup><duration>32</duration></backup><note default-x="13.5"><pitch><step>B</step><alter>-1</alter><octave>1</octave></pitch><duration>8</duration><voice>2</voice><type>quarter</type><accidental>flat</accidental><stem default-y="25.67442">up</stem><staff>2</staff></note><note default-x="13.5"><chord /><pitch><step>B</step><alter>-1</alter><octave>2</octave></pitch><duration>8</duration><voice>2</voice><type>quarter</type><accidental>flat</accidental><stem default-y="-4.27907">up</stem><staff>2</staff></note><note default-x="49.5"><pitch><step>C</step><octave>2</octave></pitch><duration>8</duration><voice>2</voice><type>quarter</type><stem default-y="21.395351">up</stem><staff>2</staff></note><note default-x="49.5"><chord /><pitch><step>C</step><octave>3</octave></pitch><duration>8</duration><voice>2</voice><type>quarter</type><stem default-y="-8.55814">up</stem><staff>2</staff></note><note default-x="85.5"><pitch><step>F</step><octave>1</octave></pitch><duration>16</duration><voice>2</voice><type>half</type><stem default-y="17.11628">up</stem><staff>2</staff></note><note default-x="85.5"><chord /><pitch><step>C</step><octave>2</octave></pitch><duration>16</duration><voice>2</voice><type>half</type><stem default-y="21.395351">up</stem><staff>2</staff></note><note default-x="85.5"><chord /><pitch><step>F</step><octave>2</octave></pitch><duration>16</duration><voice>2</voice><type>half</type><stem default-y="8.55814">up</stem><staff>2</staff></note><barline location="right"><bar-style>light-heavy</bar-style></barline></measure><!--=========================================================--></part><!--=========================================================--><part id="P2"><measure number="1" width="314.0"><print page-number="1"><system-layout><system-margins><left-margin>120</left-margin><right-margin>0</right-margin></system-margins><top-system-distance>230</top-system-distance></system-layout><measure-numbering>system</measure-numbering></print><attributes><divisions>8</divisions><key><fifths>0</fifths><mode>major</mode></key><time><beats>4</beats><beat-type>4</beat-type></time><clef><sign>G</sign><line>2</line></clef></attributes><sound tempo="121"/><note default-x="63.5"><pitch><step>G</step><octave>4</octave></pitch><duration>4</duration><voice>1</voice><type>eighth</type><stem default-y="-4.27907">up</stem><beam number="1">begin</beam></note><note default-x="90.5"><pitch><step>G</step><octave>4</octave></pitch><duration>4</duration><voice>1</voice><type>eighth</type><stem default-y="-4.27907">up</stem><beam number="1">end</beam></note><note default-x="117.5"><pitch><step>G</step><octave>4</octave></pitch><duration>6</duration><voice>1</voice><type>eighth</type><dot /><stem default-y="-4.27907">up</stem><beam number="1" /></note><note default-x="147.5"><pitch><step>G</step><octave>4</octave></pitch><duration>4</duration><voice>1</voice><type>eighth</type><stem default-y="-4.27907">up</stem><beam number="1" /></note><note default-x="174.5"><pitch><step>G</step><octave>4</octave></pitch><duration>4</duration><voice>1</voice><type>eighth</type><stem default-y="-4.27907">up</stem><beam number="1">begin</beam></note><note default-x="201.5"><pitch><step>G</step><octave>4</octave></pitch><duration>2</duration><voice>1</voice><type>16th</type><stem default-y="-4.27907">up</stem><beam number="1">end</beam><beam number="2">backward hook</beam></note><note default-x="224.0"><pitch><step>G</step><octave>4</octave></pitch><duration>4</duration><voice>1</voice><type>eighth</type><stem default-y="-4.27907">up</stem><beam number="1">begin</beam></note><note default-x="269.0"><pitch><step>G</step><octave>4</octave></pitch><duration>4</duration><voice>1</voice><type>eighth</type><stem default-y="-4.27907">up</stem><beam number="1">end</beam></note></measure><!--=========================================================--><measure number="2" width="238.5"><note default-x="13.5"><pitch><step>G</step><octave>4</octave></pitch><duration>4</duration><voice>1</voice><type>eighth</type><stem default-y="-4.27907">up</stem><beam number="1">begin</beam></note><note default-x="13.5"><chord /><pitch><step>B</step><octave>4</octave></pitch><duration>4</duration><voice>1</voice><type>eighth</type><stem default-y="-12.83721">up</stem><beam number="1" /></note><note default-x="40.5"><pitch><step>G</step><octave>4</octave></pitch><duration>4</duration><voice>1</voice><type>eighth</type><stem default-y="-12.83721">up</stem><beam number="1">end</beam></note><note default-x="40.5"><chord /><pitch><step>B</step><octave>4</octave></pitch><duration>4</duration><voice>1</voice><type>eighth</type><stem default-y="-12.83721">up</stem><beam number="1" /></note><note default-x="67.5"><pitch><step>G</step><octave>4</octave></pitch><duration>6</duration><voice>1</voice><type>eighth</type><dot /><stem default-y="-4.27907">up</stem><beam number="1" /></note><note default-x="67.5"><chord /><pitch><step>B</step><octave>4</octave></pitch><duration>6</duration><voice>1</voice><type>eighth</type><dot /><stem default-y="-12.83721">up</stem><beam number="1" /></note><note default-x="108.0"><pitch><step>G</step><octave>4</octave></pitch><duration>4</duration><voice>1</voice><type>eighth</type><stem default-y="-4.27907">up</stem><beam number="1" /></note><note default-x="108.0"><chord /><pitch><step>B</step><octave>4</octave></pitch><duration>4</duration><voice>1</voice><type>eighth</type><stem default-y="-12.83721">up</stem><beam number="1" /></note><note default-x="135.0"><pitch><step>G</step><octave>4</octave></pitch><duration>4</duration><voice>1</voice><type>eighth</type><stem default-y="-4.27907">up</stem><beam number="1">begin</beam></note><note default-x="135.0"><chord /><pitch><step>B</step><octave>4</octave></pitch><duration>4</duration><voice>1</voice><type>eighth</type><stem default-y="-12.83721">up</stem><beam number="1" /></note><note default-x="162.0"><pitch><step>G</step><octave>4</octave></pitch><duration>2</duration><voice>1</voice><type>16th</type><stem default-y="-12.83721">up</stem><beam number="1">end</beam><beam number="2">backward hook</beam></note><note default-x="162.0"><chord /><pitch><step>B</step><octave>4</octave></pitch><duration>2</duration><voice>1</voice><type>16th</type><stem default-y="-12.83721">up</stem><beam number="1" /><beam number="2" /></note><note default-x="184.5"><pitch><step>G</step><octave>4</octave></pitch><duration>4</duration><voice>1</voice><type>eighth</type><stem default-y="-4.27907">up</stem><beam number="1">begin</beam></note><note default-x="184.5"><chord /><pitch><step>B</step><octave>4</octave></pitch><duration>4</duration><voice>1</voice><type>eighth</type><stem default-y="-12.83721">up</stem><beam number="1" /></note><note default-x="211.5"><pitch><step>G</step><octave>4</octave></pitch><duration>4</duration><voice>1</voice><type>eighth</type><stem default-y="-12.83721">up</stem><beam number="1">end</beam></note><note default-x="211.5"><chord /><pitch><step>B</step><octave>4</octave></pitch><duration>4</duration><voice>1</voice><type>eighth</type><stem default-y="-12.83721">up</stem><beam number="1" /></note></measure><!--=========================================================--><measure number="3" width="228.0"><note default-x="13.5"><pitch><step>G</step><octave>4</octave></pitch><duration>4</duration><voice>1</voice><type>eighth</type><stem default-y="55.627907">down</stem><beam number="1">begin</beam></note><note default-x="13.5"><chord /><pitch><step>B</step><octave>4</octave></pitch><duration>4</duration><voice>1</voice><type>eighth</type><stem default-y="47.06977">down</stem><beam number="1" /></note><note default-x="13.5"><chord /><pitch><step>F</step><octave>5</octave></pitch><duration>4</duration><voice>1</voice><type>eighth</type><stem default-y="29.95349">down</stem><beam number="1" /></note><note default-x="40.5"><pitch><step>G</step><octave>4</octave></pitch><duration>4</duration><voice>1</voice><type>eighth</type><stem default-y="55.627907">down</stem><beam number="1">end</beam></note><note default-x="40.5"><chord /><pitch><step>B</step><octave>4</octave></pitch><duration>4</duration><voice>1</voice><type>eighth</type><stem default-y="47.06977">down</stem><beam number="1" /></note><note default-x="40.5"><chord /><pitch><step>F</step><octave>5</octave></pitch><duration>4</duration><voice>1</voice><type>eighth</type><stem default-y="29.95349">down</stem><beam number="1" /></note><note default-x="67.5"><pitch><step>G</step><octave>4</octave></pitch><duration>6</duration><voice>1</voice><type>eighth</type><dot /><stem default-y="55.627907">down</stem><beam number="1" /></note><note default-x="67.5"><chord /><pitch><step>B</step><octave>4</octave></pitch><duration>6</duration><voice>1</voice><type>eighth</type><dot /><stem default-y="47.06977">down</stem><beam number="1" /></note><note default-x="67.5"><chord /><pitch><step>F</step><octave>5</octave></pitch><duration>6</duration><voice>1</voice><type>eighth</type><dot /><stem default-y="29.95349">down</stem><beam number="1" /></note><note default-x="97.5"><pitch><step>G</step><octave>4</octave></pitch><duration>4</duration><voice>1</voice><type>eighth</type><stem default-y="55.627907">down</stem><beam number="1" /></note><note default-x="97.5"><chord /><pitch><step>B</step><octave>4</octave></pitch><duration>4</duration><voice>1</voice><type>eighth</type><stem default-y="47.06977">down</stem><beam number="1" /></note><note default-x="97.5"><chord /><pitch><step>F</step><octave>5</octave></pitch><duration>4</duration><voice>1</voice><type>eighth</type><stem default-y="29.95349">down</stem><beam number="1" /></note><note default-x="124.5"><pitch><step>G</step><octave>4</octave></pitch><duration>4</duration><voice>1</voice><type>eighth</type><stem default-y="55.627907">down</stem><beam number="1">begin</beam></note><note default-x="124.5"><chord /><pitch><step>B</step><octave>4</octave></pitch><duration>4</duration><voice>1</voice><type>eighth</type><stem default-y="47.06977">down</stem><beam number="1" /></note><note default-x="124.5"><chord /><pitch><step>F</step><octave>5</octave></pitch><duration>4</duration><voice>1</voice><type>eighth</type><stem default-y="29.95349">down</stem><beam number="1" /></note><note default-x="151.5"><pitch><step>G</step><octave>4</octave></pitch><duration>2</duration><voice>1</voice><type>16th</type><stem default-y="55.627907">down</stem><beam number="1">end</beam><beam number="2">backward hook</beam></note><note default-x="151.5"><chord /><pitch><step>B</step><octave>4</octave></pitch><duration>2</duration><voice>1</voice><type>16th</type><stem default-y="47.06977">down</stem><beam number="1" /><beam number="2" /></note><note default-x="151.5"><chord /><pitch><step>F</step><octave>5</octave></pitch><duration>2</duration><voice>1</voice><type>16th</type><stem default-y="29.95349">down</stem><beam number="1" /><beam number="2" /></note><note default-x="174.0"><pitch><step>G</step><octave>4</octave></pitch><duration>4</duration><voice>1</voice><type>eighth</type><stem default-y="55.627907">down</stem><beam number="1">begin</beam></note><note default-x="174.0"><chord /><pitch><step>B</step><octave>4</octave></pitch><duration>4</duration><voice>1</voice><type>eighth</type><stem default-y="47.06977">down</stem><beam number="1" /></note><note default-x="174.0"><chord /><pitch><step>F</step><octave>5</octave></pitch><duration>4</duration><voice>1</voice><type>eighth</type><stem default-y="29.95349">down</stem><beam number="1" /></note><note default-x="201.0"><pitch><step>G</step><octave>4</octave></pitch><duration>4</duration><voice>1</voice><type>eighth</type><stem default-y="55.627907">down</stem><beam number="1">end</beam></note><note default-x="201.0"><chord /><pitch><step>B</step><octave>4</octave></pitch><duration>4</duration><voice>1</voice><type>eighth</type><stem default-y="47.06977">down</stem><beam number="1" /></note><note default-x="201.0"><chord /><pitch><step>F</step><octave>5</octave></pitch><duration>4</duration><voice>1</voice><type>eighth</type><stem default-y="29.95349">down</stem><beam number="1" /></note></measure><!--=========================================================--><measure number="4" width="207.33722"><barline location="left"><bar-style>heavy-light</bar-style><repeat direction="forward" /></barline><note default-x="27.33721"><pitch><step>G</step><octave>4</octave></pitch><duration>4</duration><voice>1</voice><type>eighth</type><stem default-y="55.627907">down</stem><beam number="1">begin</beam></note><note default-x="27.33721"><chord /><pitch><step>B</step><octave>4</octave></pitch><duration>4</duration><voice>1</voice><type>eighth</type><stem default-y="47.06977">down</stem><beam number="1" /></note><note default-x="27.33721"><chord /><pitch><step>D</step><octave>5</octave></pitch><duration>4</duration><voice>1</voice><type>eighth</type><stem default-y="38.511627">down</stem><beam number="1" /></note><note default-x="27.33721"><chord /><pitch><step>G</step><octave>5</octave></pitch><duration>4</duration><voice>1</voice><type>eighth</type><stem default-y="25.67442">down</stem><beam number="1" /></note><note default-x="54.33721"><pitch><step>G</step><octave>4</octave></pitch><duration>4</duration><voice>1</voice><type>eighth</type><stem default-y="55.627907">down</stem><beam number="1">end</beam></note><note default-x="54.33721"><chord /><pitch><step>B</step><octave>4</octave></pitch><duration>4</duration><voice>1</voice><type>eighth</type><stem default-y="47.06977">down</stem><beam number="1" /></note><note default-x="54.33721"><chord /><pitch><step>D</step><octave>5</octave></pitch><duration>4</duration><voice>1</voice><type>eighth</type><stem default-y="38.511627">down</stem><beam number="1" /></note><note default-x="54.33721"><chord /><pitch><step>G</step><octave>5</octave></pitch><duration>4</duration><voice>1</voice><type>eighth</type><stem default-y="25.67442">down</stem><beam number="1" /></note><note default-x="81.33721"><pitch><step>G</step><octave>4</octave></pitch><duration>4</duration><voice>1</voice><type>eighth</type><stem default-y="55.627907">down</stem><beam number="1">begin</beam></note><note default-x="81.33721"><chord /><pitch><step>B</step><octave>4</octave></pitch><duration>4</duration><voice>1</voice><type>eighth</type><stem default-y="47.06977">down</stem><beam number="1" /></note><note default-x="81.33721"><chord /><pitch><step>D</step><octave>5</octave></pitch><duration>4</duration><voice>1</voice><type>eighth</type><stem default-y="38.511627">down</stem><beam number="1" /></note><note default-x="81.33721"><chord /><pitch><step>G</step><octave>5</octave></pitch><duration>4</duration><voice>1</voice><type>eighth</type><stem default-y="25.67442">down</stem><beam number="1" /></note><note default-x="108.33721"><pitch><step>G</step><octave>4</octave></pitch><duration>4</duration><voice>1</voice><type>eighth</type><stem default-y="55.627907">down</stem><beam number="1">end</beam></note><note default-x="108.33721"><chord /><pitch><step>B</step><octave>4</octave></pitch><duration>4</duration><voice>1</voice><type>eighth</type><stem default-y="47.06977">down</stem><beam number="1" /></note><note default-x="108.33721"><chord /><pitch><step>D</step><octave>5</octave></pitch><duration>4</duration><voice>1</voice><type>eighth</type><stem default-y="38.511627">down</stem><beam number="1" /></note><note default-x="108.33721"><chord /><pitch><step>G</step><octave>5</octave></pitch><duration>4</duration><voice>1</voice><type>eighth</type><stem default-y="25.67442">down</stem><beam number="1" /></note><note default-x="135.33722"><pitch><step>C</step><octave>5</octave></pitch><duration>8</duration><voice>1</voice><type>quarter</type><stem default-y="42.7907">down</stem></note><note default-x="135.33722"><chord /><pitch><step>E</step><octave>5</octave></pitch><duration>8</duration><voice>1</voice><type>quarter</type><stem default-y="34.23256">down</stem></note><note default-x="135.33722"><chord /><pitch><step>G</step><octave>5</octave></pitch><duration>8</duration><voice>1</voice><type>quarter</type><stem default-y="25.67442">down</stem></note><note default-x="171.33722"><pitch><step>C</step><octave>6</octave></pitch><duration>8</duration><voice>1</voice><type>quarter</type><stem default-y="12.83721">down</stem></note></measure><!--=========================================================--><measure number="5" width="157.5"><note default-x="13.5"><pitch><step>C</step><octave>4</octave></pitch><duration>8</duration><voice>1</voice><type>quarter</type><stem default-y="12.837208">up</stem></note><note default-x="13.5"><chord /><pitch><step>G</step><octave>4</octave></pitch><duration>8</duration><voice>1</voice><type>quarter</type><stem default-y="-4.27907">up</stem></note><note default-x="13.5"><chord /><pitch><step>G</step><octave>5</octave></pitch><duration>8</duration><voice>1</voice><type>quarter</type><stem default-y="-34.23256">up</stem></note><note default-x="49.5"><pitch><step>C</step><octave>4</octave></pitch><duration>8</duration><voice>1</voice><type>quarter</type><stem default-y="12.837208">up</stem></note><note default-x="49.5"><chord /><pitch><step>C</step><octave>5</octave></pitch><duration>8</duration><voice>1</voice><type>quarter</type><stem default-y="-17.11628">up</stem></note><note default-x="85.5"><pitch><step>G</step><octave>5</octave></pitch><duration>8</duration><voice>1</voice><type>quarter</type><stem default-y="25.67442">down</stem></note><note default-x="121.5"><pitch><step>C</step><octave>6</octave></pitch><duration>8</duration><voice>1</voice><type>quarter</type><stem default-y="12.83721">down</stem></note></measure><!--=========================================================--><measure number="6" width="157.5"><note default-x="13.5"><pitch><step>G</step><octave>4</octave></pitch><duration>16</duration><voice>1</voice><type>half</type><stem default-y="55.627907">down</stem></note><note default-x="13.5"><chord /><pitch><step>D</step><octave>5</octave></pitch><duration>16</duration><voice>1</voice><type>half</type><stem default-y="38.511627">down</stem></note><note default-x="13.5"><chord /><pitch><step>G</step><octave>5</octave></pitch><duration>16</duration><voice>1</voice><type>half</type><stem default-y="25.67442">down</stem></note><note default-x="85.5"><pitch><step>G</step><octave>4</octave></pitch><duration>8</duration><voice>1</voice><type>quarter</type><stem default-y="55.627907">down</stem></note><note default-x="85.5"><chord /><pitch><step>D</step><octave>5</octave></pitch><duration>8</duration><voice>1</voice><type>quarter</type><stem default-y="38.511627">down</stem></note><note default-x="85.5"><chord /><pitch><step>G</step><octave>5</octave></pitch><duration>8</duration><voice>1</voice><type>quarter</type><stem default-y="25.67442">down</stem></note><note default-x="121.5"><pitch><step>C</step><octave>5</octave></pitch><duration>8</duration><voice>1</voice><type>quarter</type><stem default-y="42.7907">down</stem></note><note default-x="121.5"><chord /><pitch><step>F</step><octave>5</octave></pitch><duration>8</duration><voice>1</voice><type>quarter</type><stem default-y="29.95349">down</stem></note><note default-x="121.5"><chord /><pitch><step>C</step><octave>6</octave></pitch><duration>8</duration><voice>1</voice><type>quarter</type><stem default-y="12.83721">down</stem></note></measure><!--=========================================================--><measure number="7" width="151.5"><note default-x="13.5"><pitch><step>C</step><octave>5</octave></pitch><duration>8</duration><voice>1</voice><type>quarter</type><stem default-y="42.7907">down</stem></note><note default-x="13.5"><chord /><pitch><step>G</step><octave>5</octave></pitch><duration>8</duration><voice>1</voice><type>quarter</type><stem default-y="25.67442">down</stem></note><note default-x="49.5"><pitch><step>C</step><octave>5</octave></pitch><duration>8</duration><voice>1</voice><type>quarter</type><stem default-y="42.7907">down</stem></note><note default-x="49.5"><chord /><pitch><step>C</step><octave>6</octave></pitch><duration>8</duration><voice>1</voice><type>quarter</type><stem default-y="12.83721">down</stem></note><note default-x="85.5"><pitch><step>G</step><octave>5</octave></pitch><duration>12</duration><voice>1</voice><type>quarter</type><dot /><stem default-y="25.67442">down</stem></note><note default-x="85.5"><chord /><pitch><step>C</step><octave>6</octave></pitch><duration>12</duration><voice>1</voice><type>quarter</type><dot /><stem default-y="12.83721">down</stem></note><note default-x="85.5"><chord /><pitch><step>E</step><octave>6</octave></pitch><duration>12</duration><voice>1</voice><type>quarter</type><dot /><stem default-y="4.27907">down</stem></note><note default-x="124.5"><pitch><step>D</step><octave>5</octave></pitch><duration>4</duration><voice>1</voice><type>eighth</type><stem default-y="38.511627">down</stem><beam number="1" /></note><note default-x="124.5"><chord /><pitch><step>D</step><octave>6</octave></pitch><duration>4</duration><voice>1</voice><type>eighth</type><stem default-y="8.55814">down</stem><beam number="1" /></note></measure><!--=========================================================--><measure number="8" width="211.5"><note default-x="13.5"><pitch><step>C</step><octave>5</octave></pitch><duration>4</duration><voice>1</voice><type>eighth</type><stem default-y="42.790703">down</stem><beam number="1">begin</beam></note><note default-x="13.5"><chord /><pitch><step>C</step><octave>6</octave></pitch><duration>4</duration><voice>1</voice><type>eighth</type><stem default-y="12.83721">down</stem><beam number="1" /></note><note default-x="40.5"><pitch><step>B</step><octave>4</octave></pitch><duration>4</duration><voice>1</voice><type>eighth</type><stem default-y="47.06977">down</stem><beam number="1">end</beam></note><note default-x="40.5"><chord /><pitch><step>B</step><octave>5</octave></pitch><duration>4</duration><voice>1</voice><type>eighth</type><stem default-y="17.11628">down</stem><beam number="1" /></note><note default-x="67.5"><pitch><step>A</step><octave>4</octave></pitch><duration>4</duration><voice>1</voice><type>eighth</type><stem default-y="55.627907">down</stem><beam number="1">begin</beam></note><note default-x="67.5"><chord /><pitch><step>A</step><octave>5</octave></pitch><duration>4</duration><voice>1</voice><type>eighth</type><stem default-y="21.39535">down</stem><beam number="1" /></note><note default-x="94.5"><pitch><step>F</step><octave>4</octave></pitch><duration>4</duration><voice>1</voice><type>eighth</type><stem default-y="59.90698">down</stem><beam number="1">end</beam></note><note default-x="121.5"><pitch><step>G</step><octave>4</octave></pitch><duration>4</duration><voice>1</voice><type>eighth</type><stem default-y="55.627907">down</stem><beam number="1">begin</beam></note><note default-x="148.5"><pitch><step>G</step><octave>4</octave></pitch><duration>4</duration><voice>1</voice><type>eighth</type><stem default-y="55.627907">down</stem><beam number="1">end</beam></note><note default-x="148.5"><chord /><pitch><step>G</step><octave>5</octave></pitch><duration>4</duration><voice>1</voice><type>eighth</type><stem default-y="25.67442">down</stem><beam number="1" /></note><note default-x="175.5"><pitch><step>C</step><octave>5</octave></pitch><duration>8</duration><voice>1</voice><type>quarter</type><stem default-y="42.7907">down</stem></note><note default-x="175.5"><chord /><pitch><step>E</step><octave>5</octave></pitch><duration>8</duration><voice>1</voice><type>quarter</type><stem default-y="34.23256">down</stem></note><note default-x="175.5"><chord /><pitch><step>G</step><octave>5</octave></pitch><duration>8</duration><voice>1</voice><type>quarter</type><stem default-y="25.67442">down</stem></note></measure><!--=========================================================--><measure number="9" width="229.5"><note default-x="13.5"><pitch><step>C</step><octave>5</octave></pitch><duration>8</duration><voice>1</voice><type>quarter</type><stem default-y="42.7907">down</stem></note><note default-x="13.5"><chord /><pitch><step>E</step><octave>5</octave></pitch><duration>8</duration><voice>1</voice><type>quarter</type><stem default-y="34.23256">down</stem></note><note default-x="13.5"><chord /><pitch><step>C</step><octave>6</octave></pitch><duration>8</duration><voice>1</voice><type>quarter</type><stem default-y="12.83721">down</stem></note><note default-x="49.5"><pitch><step>C</step><octave>5</octave></pitch><duration>8</duration><voice>1</voice><type>quarter</type><stem default-y="42.7907">down</stem></note><note default-x="49.5"><chord /><pitch><step>G</step><octave>5</octave></pitch><duration>8</duration><voice>1</voice><type>quarter</type><stem default-y="25.67442">down</stem></note><note default-x="85.5"><pitch><step>E</step><octave>5</octave></pitch><duration>4</duration><voice>1</voice><type>eighth</type><stem default-y="34.23256">down</stem><beam number="1">begin</beam></note><note default-x="112.5"><pitch><step>F</step><octave>5</octave></pitch><duration>4</duration><voice>1</voice><type>eighth</type><stem default-y="29.95349">down</stem><beam number="1">end</beam></note><note default-x="139.5"><pitch><step>G</step><octave>4</octave></pitch><duration>8</duration><voice>1</voice><type>quarter</type><stem default-y="55.627907">down</stem></note><note default-x="139.5"><chord /><pitch><step>G</step><octave>5</octave></pitch><duration>8</duration><voice>1</voice><type>quarter</type><stem default-y="25.67442">down</stem></note></measure><!--=========================================================--><measure number="10" width="207.0"><note default-x="13.5"><pitch><step>C</step><octave>5</octave></pitch><duration>8</duration><voice>1</voice><type>quarter</type><stem default-y="42.7907">down</stem></note><note default-x="13.5"><chord /><pitch><step>E</step><octave>5</octave></pitch><duration>8</duration><voice>1</voice><type>quarter</type><stem default-y="34.23256">down</stem></note><note default-x="13.5"><chord /><pitch><step>C</step><octave>6</octave></pitch><duration>8</duration><voice>1</voice><type>quarter</type><stem default-y="12.83721">down</stem></note><note default-x="49.5"><pitch><step>C</step><octave>5</octave></pitch><duration>16</duration><voice>1</voice><type>half</type><stem default-y="42.7907">down</stem></note><note default-x="49.5"><chord /><pitch><step>G</step><octave>5</octave></pitch><duration>16</duration><voice>1</voice><type>half</type><stem default-y="25.67442">down</stem></note><note default-x="117.0"><pitch><step>C</step><octave>6</octave></pitch><duration>2</duration><voice>1</voice><type>16th</type><stem default-y="21.39535">down</stem><beam number="1">begin</beam><beam number="2">begin</beam></note><note default-x="139.5"><pitch><step>B</step><octave>5</octave></pitch><duration>2</duration><voice>1</voice><type>16th</type><stem default-y="22.821707">down</stem><beam number="1">continue</beam><beam number="2">continue</beam></note><note default-x="162.0"><pitch><step>A</step><octave>5</octave></pitch><duration>2</duration><voice>1</voice><type>16th</type><stem default-y="24.248062">down</stem><beam number="1">continue</beam><beam number="2">continue</beam></note><note default-x="184.5"><pitch><step>G</step><octave>5</octave></pitch><duration>2</duration><voice>1</voice><type>16th</type><stem default-y="25.67442">down</stem><beam number="1">end</beam><beam number="2">end</beam></note></measure><!--=========================================================--><measure number="11" width="247.5"><note default-x="13.5"><pitch><step>G</step><octave>5</octave></pitch><duration>2</duration><voice>1</voice><type>16th</type><stem default-y="25.67442">down</stem><beam number="1">begin</beam><beam number="2">begin</beam></note><note default-x="36.0"><pitch><step>A</step><octave>5</octave></pitch><duration>2</duration><voice>1</voice><type>16th</type><stem default-y="24.248062">down</stem><beam number="1">continue</beam><beam number="2">continue</beam></note><note default-x="58.5"><pitch><step>B</step><octave>5</octave></pitch><duration>2</duration><voice>1</voice><type>16th</type><stem default-y="22.821707">down</stem><beam number="1">continue</beam><beam number="2">continue</beam></note><note default-x="81.0"><pitch><step>C</step><octave>6</octave></pitch><duration>2</duration><voice>1</voice><type>16th</type><stem default-y="21.39535">down</stem><beam number="1">end</beam><beam number="2">end</beam></note><note default-x="103.5"><pitch><step>A</step><octave>5</octave></pitch><duration>8</duration><voice>1</voice><type>quarter</type><stem default-y="21.39535">down</stem></note><note default-x="139.5"><pitch><step>G</step><octave>4</octave></pitch><duration>4</duration><voice>1</voice><type>eighth</type><stem default-y="55.627907">down</stem><beam number="1">begin</beam></note><note default-x="139.5"><chord /><pitch><step>G</step><octave>5</octave></pitch><duration>4</duration><voice>1</voice><type>eighth</type><stem default-y="25.67442">down</stem><beam number="1" /></note><note default-x="166.5"><pitch><step>F</step><octave>4</octave></pitch><duration>4</duration><voice>1</voice><type>eighth</type><stem default-y="59.90698">down</stem><beam number="1">end</beam></note><note default-x="166.5"><chord /><pitch><step>F</step><octave>5</octave></pitch><duration>4</duration><voice>1</voice><type>eighth</type><stem default-y="29.95349">down</stem><beam number="1" /></note><note default-x="193.5"><pitch><step>E</step><octave>4</octave></pitch><duration>4</duration><voice>1</voice><type>eighth</type><stem default-y="-25.67442">up</stem><beam number="1">begin</beam></note><note default-x="193.5"><chord /><pitch><step>E</step><octave>5</octave></pitch><duration>4</duration><voice>1</voice><type>eighth</type><stem default-y="-25.67442">up</stem><beam number="1" /></note><note default-x="220.5"><pitch><step>F</step><octave>4</octave></pitch><duration>4</duration><voice>1</voice><type>eighth</type><stem default-y="0.0">up</stem><beam number="1">end</beam></note><note default-x="220.5"><chord /><pitch><step>F</step><octave>5</octave></pitch><duration>4</duration><voice>1</voice><type>eighth</type><stem default-y="-29.95349">up</stem><beam number="1" /></note></measure><!--=========================================================--><measure number="12" width="241.8372"><note default-x="13.5"><pitch><step>E</step><octave>4</octave></pitch><duration>4</duration><voice>1</voice><type>eighth</type><stem default-y="4.27907">up</stem><beam number="1">begin</beam></note><note default-x="13.5"><chord /><pitch><step>E</step><octave>5</octave></pitch><duration>4</duration><voice>1</voice><type>eighth</type><stem default-y="-25.67442">up</stem><beam number="1" /></note><note default-x="40.5"><pitch><step>C</step><octave>4</octave></pitch><duration>4</duration><voice>1</voice><type>eighth</type><stem default-y="-21.39535">up</stem><beam number="1">end</beam></note><note default-x="40.5"><chord /><pitch><step>C</step><octave>5</octave></pitch><duration>4</duration><voice>1</voice><type>eighth</type><stem default-y="-17.11628">up</stem><beam number="1" /></note><note default-x="67.5"><pitch><step>D</step><octave>4</octave></pitch><duration>8</duration><voice>1</voice><type>quarter</type><stem default-y="8.55814">up</stem></note><note default-x="67.5"><chord /><pitch><step>G</step><octave>4</octave></pitch><duration>8</duration><voice>1</voice><type>quarter</type><stem default-y="-4.27907">up</stem></note><note default-x="67.5"><chord /><pitch><step>D</step><octave>5</octave></pitch><duration>8</duration><voice>1</voice><type>quarter</type><stem default-y="-21.39535">up</stem></note><note default-x="121.5"><pitch><step>G</step><octave>4</octave></pitch><duration>6</duration><voice>1</voice><type>eighth</type><dot /><stem default-y="55.627907">down</stem><beam number="1">begin</beam></note><note default-x="121.5"><chord /><pitch><step>G</step><octave>5</octave></pitch><duration>6</duration><voice>1</voice><type>eighth</type><dot /><stem default-y="25.67442">down</stem><beam number="1" /></note><note default-x="151.5"><pitch><step>G</step><octave>4</octave></pitch><duration>2</duration><voice>1</voice><type>16th</type><stem default-y="55.627907">down</stem><beam number="1">end</beam><beam number="2">backward hook</beam></note><note default-x="151.5"><chord /><pitch><step>G</step><octave>5</octave></pitch><duration>2</duration><voice>1</voice><type>16th</type><stem default-y="25.67442">down</stem><beam number="1" /><beam number="2" /></note><note default-x="174.0"><pitch><step>G</step><octave>4</octave></pitch><duration>4</duration><voice>1</voice><type>eighth</type><stem default-y="55.627907">down</stem><beam number="1">begin</beam></note><note default-x="174.0"><chord /><pitch><step>G</step><octave>5</octave></pitch><duration>4</duration><voice>1</voice><type>eighth</type><stem default-y="25.67442">down</stem><beam number="1" /></note><note default-x="201.0"><pitch><step>G</step><octave>4</octave></pitch><duration>4</duration><voice>1</voice><type>eighth</type><stem default-y="55.627907">down</stem><beam number="1">end</beam></note><note default-x="201.0"><chord /><pitch><step>G</step><octave>5</octave></pitch><duration>4</duration><voice>1</voice><type>eighth</type><stem default-y="25.67442">down</stem><beam number="1" /></note><barline location="right"><bar-style>light-heavy</bar-style><repeat direction="backward" /></barline></measure><!--=========================================================--><measure number="13" width="157.5"><note default-x="13.5"><pitch><step>C</step><octave>4</octave></pitch><duration>32</duration><tie type="start" /><voice>1</voice><type>whole</type><stem default-y="12.837208">up</stem><notations><tied type="start" /></notations></note><note default-x="13.5"><chord /><pitch><step>C</step><octave>5</octave></pitch><duration>32</duration><tie type="start" /><voice>1</voice><type>whole</type><stem default-y="-17.11628">up</stem><notations><tied type="start" /></notations></note></measure><!--=========================================================--><measure number="14" width="157.5"><note default-x="13.5"><pitch><step>C</step><octave>4</octave></pitch><duration>32</duration><tie type="stop" /><voice>1</voice><type>whole</type><stem default-y="12.837208">up</stem><notations><tied type="stop" /></notations></note><note default-x="13.5"><chord /><pitch><step>C</step><octave>5</octave></pitch><duration>32</duration><tie type="stop" /><voice>1</voice><type>whole</type><stem default-y="-17.11628">up</stem><notations><tied type="stop" /></notations></note></measure><!--=========================================================--><measure number="15" width="175.5"><note default-x="13.5"><pitch><step>C</step><octave>4</octave></pitch><duration>32</duration><tie type="start" /><voice>1</voice><type>whole</type><stem default-y="12.837208">up</stem><notations><tied type="start" /></notations></note><note default-x="13.5"><chord /><pitch><step>C</step><octave>5</octave></pitch><duration>32</duration><tie type="start" /><voice>1</voice><type>whole</type><stem default-y="-17.11628">up</stem><notations><tied type="start" /></notations></note></measure><!--=========================================================--><measure number="16" width="193.5"><note default-x="13.5"><pitch><step>C</step><octave>4</octave></pitch><duration>32</duration><tie type="stop" /><voice>1</voice><type>whole</type><stem default-y="12.837208">up</stem><notations><tied type="stop" /></notations></note><note default-x="13.5"><chord /><pitch><step>C</step><octave>5</octave></pitch><duration>32</duration><tie type="stop" /><voice>1</voice><type>whole</type><stem default-y="-17.11628">up</stem><notations><tied type="stop" /></notations></note></measure><!--=========================================================--><measure number="17" width="157.5"><note default-x="13.5"><pitch><step>F</step><octave>4</octave></pitch><duration>8</duration><voice>1</voice><type>quarter</type><stem default-y="59.90698">down</stem></note><note default-x="13.5"><chord /><pitch><step>F</step><octave>5</octave></pitch><duration>8</duration><voice>1</voice><type>quarter</type><stem default-y="29.95349">down</stem></note><note default-x="49.5"><pitch><step>E</step><octave>4</octave></pitch><duration>8</duration><voice>1</voice><type>quarter</type><stem default-y="4.27907">up</stem></note><note default-x="49.5"><chord /><pitch><step>E</step><octave>5</octave></pitch><duration>8</duration><voice>1</voice><type>quarter</type><stem default-y="-25.67442">up</stem></note><note default-x="85.5"><pitch><step>F</step><octave>5</octave></pitch><duration>8</duration><voice>1</voice><type>quarter</type><stem default-y="29.95349">down</stem><notations><articulations><staccato /></articulations></notations></note><note default-x="121.5"><pitch><step>F</step><octave>4</octave></pitch><duration>8</duration><voice>1</voice><type>quarter</type><stem default-y="0.0">up</stem><notations><articulations><staccato /></articulations></notations></note><barline location="right"><bar-style>light-heavy</bar-style></barline></measure><!--=========================================================--></part><!--=========================================================--></score-partwise>